<mxfile host="app.diagrams.net" agent="Mozilla/5.0 (Windows NT 10.0; Win64; x64) AppleWebKit/537.36 (KHTML, like Gecko) Chrome/131.0.0.0 Safari/537.36 Edg/131.0.0.0" version="26.0.6">
  <diagram name="PÃ¡gina-1" id="eUACIu8FaWGJN2fmajXR">
    <mxGraphModel dx="2227" dy="1256" grid="1" gridSize="10" guides="1" tooltips="1" connect="1" arrows="1" fold="1" page="1" pageScale="1" pageWidth="827" pageHeight="1169" math="0" shadow="0">
      <root>
        <mxCell id="0" />
        <mxCell id="1" parent="0" />
        <mxCell id="8bl1ii6WqUolUr_ryR1j-113" value="" style="edgeStyle=segmentEdgeStyle;endArrow=classic;html=1;curved=0;rounded=0;endSize=8;startSize=8;strokeColor=#006658;fontColor=#5C5C5C;fillColor=#21C0A5;" edge="1" parent="1">
          <mxGeometry width="50" height="50" relative="1" as="geometry">
            <mxPoint x="1273" y="702" as="sourcePoint" />
            <mxPoint x="1159" y="581" as="targetPoint" />
            <Array as="points">
              <mxPoint x="1273" y="581" />
            </Array>
          </mxGeometry>
        </mxCell>
        <mxCell id="8bl1ii6WqUolUr_ryR1j-1" value="pacientes" style="swimlane;fontStyle=0;childLayout=stackLayout;horizontal=1;startSize=30;horizontalStack=0;resizeParent=1;resizeParentMax=0;resizeLast=0;collapsible=1;marginBottom=0;whiteSpace=wrap;html=1;container=0;labelBackgroundColor=none;fillColor=#21C0A5;strokeColor=#006658;fontColor=#5C5C5C;" vertex="1" parent="1">
          <mxGeometry x="360" y="230" width="140" height="130" as="geometry" />
        </mxCell>
        <mxCell id="8bl1ii6WqUolUr_ryR1j-2" value="id_paciente" style="text;strokeColor=none;fillColor=none;align=left;verticalAlign=middle;spacingLeft=4;spacingRight=4;overflow=hidden;points=[[0,0.5],[1,0.5]];portConstraint=eastwest;rotatable=0;whiteSpace=wrap;html=1;labelBackgroundColor=none;fontColor=#5C5C5C;" vertex="1" parent="1">
          <mxGeometry x="360" y="260" width="140" height="20" as="geometry" />
        </mxCell>
        <mxCell id="8bl1ii6WqUolUr_ryR1j-3" value="nome" style="text;strokeColor=none;fillColor=none;align=left;verticalAlign=middle;spacingLeft=4;spacingRight=4;overflow=hidden;points=[[0,0.5],[1,0.5]];portConstraint=eastwest;rotatable=0;whiteSpace=wrap;html=1;labelBackgroundColor=none;fontColor=#5C5C5C;" vertex="1" parent="1">
          <mxGeometry x="360" y="279" width="60" height="20" as="geometry" />
        </mxCell>
        <mxCell id="8bl1ii6WqUolUr_ryR1j-4" value="nascimento" style="text;strokeColor=none;fillColor=none;align=left;verticalAlign=middle;spacingLeft=4;spacingRight=4;overflow=hidden;points=[[0,0.5],[1,0.5]];portConstraint=eastwest;rotatable=0;whiteSpace=wrap;html=1;labelBackgroundColor=none;fontColor=#5C5C5C;" vertex="1" parent="1">
          <mxGeometry x="360" y="299" width="80" height="20" as="geometry" />
        </mxCell>
        <mxCell id="8bl1ii6WqUolUr_ryR1j-5" value="endereco&lt;span style=&quot;color: rgba(0, 0, 0, 0); font-family: monospace; font-size: 0px; text-wrap-mode: nowrap;&quot;&gt;%3CmxGraphModel%3E%3Croot%3E%3CmxCell%20id%3D%220%22%2F%3E%3CmxCell%20id%3D%221%22%20parent%3D%220%22%2F%3E%3CmxCell%20id%3D%222%22%20value%3D%22nascimento%22%20style%3D%22text%3BstrokeColor%3Dnone%3BfillColor%3Dnone%3Balign%3Dleft%3BverticalAlign%3Dmiddle%3BspacingLeft%3D4%3BspacingRight%3D4%3Boverflow%3Dhidden%3Bpoints%3D%5B%5B0%2C0.5%5D%2C%5B1%2C0.5%5D%5D%3BportConstraint%3Deastwest%3Brotatable%3D0%3BwhiteSpace%3Dwrap%3Bhtml%3D1%3B%22%20vertex%3D%221%22%20parent%3D%221%22%3E%3CmxGeometry%20x%3D%22230%22%20y%3D%22340%22%20width%3D%2280%22%20height%3D%2220%22%20as%3D%22geometry%22%2F%3E%3C%2FmxCell%3E%3C%2Froot%3E%3C%2FmxGraphModel%3E&lt;/span&gt;" style="text;strokeColor=none;fillColor=none;align=left;verticalAlign=middle;spacingLeft=4;spacingRight=4;overflow=hidden;points=[[0,0.5],[1,0.5]];portConstraint=eastwest;rotatable=0;whiteSpace=wrap;html=1;labelBackgroundColor=none;fontColor=#5C5C5C;" vertex="1" parent="1">
          <mxGeometry x="360" y="319" width="80" height="20" as="geometry" />
        </mxCell>
        <mxCell id="8bl1ii6WqUolUr_ryR1j-6" value="telefone" style="text;strokeColor=none;fillColor=none;align=left;verticalAlign=middle;spacingLeft=4;spacingRight=4;overflow=hidden;points=[[0,0.5],[1,0.5]];portConstraint=eastwest;rotatable=0;whiteSpace=wrap;html=1;labelBackgroundColor=none;fontColor=#5C5C5C;" vertex="1" parent="1">
          <mxGeometry x="360" y="339" width="80" height="20" as="geometry" />
        </mxCell>
        <mxCell id="8bl1ii6WqUolUr_ryR1j-7" value="medicos" style="swimlane;fontStyle=0;childLayout=stackLayout;horizontal=1;startSize=30;horizontalStack=0;resizeParent=1;resizeParentMax=0;resizeLast=0;collapsible=1;marginBottom=0;whiteSpace=wrap;html=1;container=0;labelBackgroundColor=none;fillColor=#21C0A5;strokeColor=#006658;fontColor=#5C5C5C;" vertex="1" parent="1">
          <mxGeometry x="860" y="230" width="140" height="170" as="geometry" />
        </mxCell>
        <mxCell id="8bl1ii6WqUolUr_ryR1j-8" value="id_medico" style="text;strokeColor=none;fillColor=none;align=left;verticalAlign=middle;spacingLeft=4;spacingRight=4;overflow=hidden;points=[[0,0.5],[1,0.5]];portConstraint=eastwest;rotatable=0;whiteSpace=wrap;html=1;labelBackgroundColor=none;fontColor=#5C5C5C;" vertex="1" parent="1">
          <mxGeometry x="860" y="260" width="140" height="20" as="geometry" />
        </mxCell>
        <mxCell id="8bl1ii6WqUolUr_ryR1j-9" value="nome" style="text;strokeColor=none;fillColor=none;align=left;verticalAlign=middle;spacingLeft=4;spacingRight=4;overflow=hidden;points=[[0,0.5],[1,0.5]];portConstraint=eastwest;rotatable=0;whiteSpace=wrap;html=1;labelBackgroundColor=none;fontColor=#5C5C5C;" vertex="1" parent="1">
          <mxGeometry x="860" y="279" width="60" height="20" as="geometry" />
        </mxCell>
        <mxCell id="8bl1ii6WqUolUr_ryR1j-10" value="nascimento" style="text;strokeColor=none;fillColor=none;align=left;verticalAlign=middle;spacingLeft=4;spacingRight=4;overflow=hidden;points=[[0,0.5],[1,0.5]];portConstraint=eastwest;rotatable=0;whiteSpace=wrap;html=1;labelBackgroundColor=none;fontColor=#5C5C5C;" vertex="1" parent="1">
          <mxGeometry x="860" y="318" width="80" height="20" as="geometry" />
        </mxCell>
        <mxCell id="8bl1ii6WqUolUr_ryR1j-11" value="endereco&lt;span style=&quot;color: rgba(0, 0, 0, 0); font-family: monospace; font-size: 0px; text-wrap-mode: nowrap;&quot;&gt;%3CmxGraphModel%3E%3Croot%3E%3CmxCell%20id%3D%220%22%2F%3E%3CmxCell%20id%3D%221%22%20parent%3D%220%22%2F%3E%3CmxCell%20id%3D%222%22%20value%3D%22nascimento%22%20style%3D%22text%3BstrokeColor%3Dnone%3BfillColor%3Dnone%3Balign%3Dleft%3BverticalAlign%3Dmiddle%3BspacingLeft%3D4%3BspacingRight%3D4%3Boverflow%3Dhidden%3Bpoints%3D%5B%5B0%2C0.5%5D%2C%5B1%2C0.5%5D%5D%3BportConstraint%3Deastwest%3Brotatable%3D0%3BwhiteSpace%3Dwrap%3Bhtml%3D1%3B%22%20vertex%3D%221%22%20parent%3D%221%22%3E%3CmxGeometry%20x%3D%22230%22%20y%3D%22340%22%20width%3D%2280%22%20height%3D%2220%22%20as%3D%22geometry%22%2F%3E%3C%2FmxCell%3E%3C%2Froot%3E%3C%2FmxGraphModel%3E&lt;/span&gt;" style="text;strokeColor=none;fillColor=none;align=left;verticalAlign=middle;spacingLeft=4;spacingRight=4;overflow=hidden;points=[[0,0.5],[1,0.5]];portConstraint=eastwest;rotatable=0;whiteSpace=wrap;html=1;labelBackgroundColor=none;fontColor=#5C5C5C;" vertex="1" parent="1">
          <mxGeometry x="860" y="338" width="80" height="20" as="geometry" />
        </mxCell>
        <mxCell id="8bl1ii6WqUolUr_ryR1j-12" value="telefone" style="text;strokeColor=none;fillColor=none;align=left;verticalAlign=middle;spacingLeft=4;spacingRight=4;overflow=hidden;points=[[0,0.5],[1,0.5]];portConstraint=eastwest;rotatable=0;whiteSpace=wrap;html=1;labelBackgroundColor=none;fontColor=#5C5C5C;" vertex="1" parent="1">
          <mxGeometry x="860" y="358" width="80" height="20" as="geometry" />
        </mxCell>
        <mxCell id="8bl1ii6WqUolUr_ryR1j-13" value="especialidade" style="text;strokeColor=none;fillColor=none;align=left;verticalAlign=middle;spacingLeft=4;spacingRight=4;overflow=hidden;points=[[0,0.5],[1,0.5]];portConstraint=eastwest;rotatable=0;whiteSpace=wrap;html=1;labelBackgroundColor=none;fontColor=#5C5C5C;" vertex="1" parent="1">
          <mxGeometry x="860" y="298" width="90" height="20" as="geometry" />
        </mxCell>
        <mxCell id="8bl1ii6WqUolUr_ryR1j-14" value="email" style="text;strokeColor=none;fillColor=none;align=left;verticalAlign=middle;spacingLeft=4;spacingRight=4;overflow=hidden;points=[[0,0.5],[1,0.5]];portConstraint=eastwest;rotatable=0;whiteSpace=wrap;html=1;labelBackgroundColor=none;fontColor=#5C5C5C;" vertex="1" parent="1">
          <mxGeometry x="860" y="377" width="60" height="20" as="geometry" />
        </mxCell>
        <mxCell id="8bl1ii6WqUolUr_ryR1j-15" value="enfermeiro" style="swimlane;fontStyle=0;childLayout=stackLayout;horizontal=1;startSize=30;horizontalStack=0;resizeParent=1;resizeParentMax=0;resizeLast=0;collapsible=1;marginBottom=0;whiteSpace=wrap;html=1;container=0;labelBackgroundColor=none;fillColor=#21C0A5;strokeColor=#006658;fontColor=#5C5C5C;" vertex="1" parent="1">
          <mxGeometry x="608" y="230" width="140" height="170" as="geometry" />
        </mxCell>
        <mxCell id="8bl1ii6WqUolUr_ryR1j-16" value="id_enfermeiro" style="text;strokeColor=none;fillColor=none;align=left;verticalAlign=middle;spacingLeft=4;spacingRight=4;overflow=hidden;points=[[0,0.5],[1,0.5]];portConstraint=eastwest;rotatable=0;whiteSpace=wrap;html=1;labelBackgroundColor=none;fontColor=#5C5C5C;" vertex="1" parent="1">
          <mxGeometry x="608" y="260" width="140" height="20" as="geometry" />
        </mxCell>
        <mxCell id="8bl1ii6WqUolUr_ryR1j-17" value="nome" style="text;strokeColor=none;fillColor=none;align=left;verticalAlign=middle;spacingLeft=4;spacingRight=4;overflow=hidden;points=[[0,0.5],[1,0.5]];portConstraint=eastwest;rotatable=0;whiteSpace=wrap;html=1;labelBackgroundColor=none;fontColor=#5C5C5C;" vertex="1" parent="1">
          <mxGeometry x="608" y="279" width="132" height="20" as="geometry" />
        </mxCell>
        <mxCell id="8bl1ii6WqUolUr_ryR1j-18" value="nascimento" style="text;strokeColor=none;fillColor=none;align=left;verticalAlign=middle;spacingLeft=4;spacingRight=4;overflow=hidden;points=[[0,0.5],[1,0.5]];portConstraint=eastwest;rotatable=0;whiteSpace=wrap;html=1;labelBackgroundColor=none;fontColor=#5C5C5C;" vertex="1" parent="1">
          <mxGeometry x="608" y="318" width="80" height="20" as="geometry" />
        </mxCell>
        <mxCell id="8bl1ii6WqUolUr_ryR1j-19" value="endereco&lt;span style=&quot;color: rgba(0, 0, 0, 0); font-family: monospace; font-size: 0px; text-wrap-mode: nowrap;&quot;&gt;%3CmxGraphModel%3E%3Croot%3E%3CmxCell%20id%3D%220%22%2F%3E%3CmxCell%20id%3D%221%22%20parent%3D%220%22%2F%3E%3CmxCell%20id%3D%222%22%20value%3D%22nascimento%22%20style%3D%22text%3BstrokeColor%3Dnone%3BfillColor%3Dnone%3Balign%3Dleft%3BverticalAlign%3Dmiddle%3BspacingLeft%3D4%3BspacingRight%3D4%3Boverflow%3Dhidden%3Bpoints%3D%5B%5B0%2C0.5%5D%2C%5B1%2C0.5%5D%5D%3BportConstraint%3Deastwest%3Brotatable%3D0%3BwhiteSpace%3Dwrap%3Bhtml%3D1%3B%22%20vertex%3D%221%22%20parent%3D%221%22%3E%3CmxGeometry%20x%3D%22230%22%20y%3D%22340%22%20width%3D%2280%22%20height%3D%2220%22%20as%3D%22geometry%22%2F%3E%3C%2FmxCell%3E%3C%2Froot%3E%3C%2FmxGraphModel%3E&lt;/span&gt;" style="text;strokeColor=none;fillColor=none;align=left;verticalAlign=middle;spacingLeft=4;spacingRight=4;overflow=hidden;points=[[0,0.5],[1,0.5]];portConstraint=eastwest;rotatable=0;whiteSpace=wrap;html=1;labelBackgroundColor=none;fontColor=#5C5C5C;" vertex="1" parent="1">
          <mxGeometry x="608" y="339" width="80" height="20" as="geometry" />
        </mxCell>
        <mxCell id="8bl1ii6WqUolUr_ryR1j-20" value="telefone" style="text;strokeColor=none;fillColor=none;align=left;verticalAlign=middle;spacingLeft=4;spacingRight=4;overflow=hidden;points=[[0,0.5],[1,0.5]];portConstraint=eastwest;rotatable=0;whiteSpace=wrap;html=1;labelBackgroundColor=none;fontColor=#5C5C5C;" vertex="1" parent="1">
          <mxGeometry x="608" y="358" width="80" height="20" as="geometry" />
        </mxCell>
        <mxCell id="8bl1ii6WqUolUr_ryR1j-21" value="departamento" style="text;strokeColor=none;fillColor=none;align=left;verticalAlign=middle;spacingLeft=4;spacingRight=4;overflow=hidden;points=[[0,0.5],[1,0.5]];portConstraint=eastwest;rotatable=0;whiteSpace=wrap;html=1;labelBackgroundColor=none;fontColor=#5C5C5C;" vertex="1" parent="1">
          <mxGeometry x="608" y="298" width="132" height="20" as="geometry" />
        </mxCell>
        <mxCell id="8bl1ii6WqUolUr_ryR1j-22" value="email" style="text;strokeColor=none;fillColor=none;align=left;verticalAlign=middle;spacingLeft=4;spacingRight=4;overflow=hidden;points=[[0,0.5],[1,0.5]];portConstraint=eastwest;rotatable=0;whiteSpace=wrap;html=1;labelBackgroundColor=none;fontColor=#5C5C5C;" vertex="1" parent="1">
          <mxGeometry x="608" y="377" width="60" height="20" as="geometry" />
        </mxCell>
        <mxCell id="8bl1ii6WqUolUr_ryR1j-23" style="edgeStyle=orthogonalEdgeStyle;rounded=0;orthogonalLoop=1;jettySize=auto;html=1;exitX=0.5;exitY=1;exitDx=0;exitDy=0;entryX=0.5;entryY=0;entryDx=0;entryDy=0;labelBackgroundColor=none;strokeColor=#006658;fontColor=default;" edge="1" parent="1" source="8bl1ii6WqUolUr_ryR1j-24" target="8bl1ii6WqUolUr_ryR1j-32">
          <mxGeometry relative="1" as="geometry">
            <mxPoint x="673.8571428571429" y="630" as="targetPoint" />
          </mxGeometry>
        </mxCell>
        <mxCell id="8bl1ii6WqUolUr_ryR1j-24" value="consulta" style="swimlane;fontStyle=0;childLayout=stackLayout;horizontal=1;startSize=30;horizontalStack=0;resizeParent=1;resizeParentMax=0;resizeLast=0;collapsible=1;marginBottom=0;whiteSpace=wrap;html=1;container=0;labelBackgroundColor=none;fillColor=#21C0A5;strokeColor=#006658;fontColor=#5C5C5C;" vertex="1" parent="1">
          <mxGeometry x="604" y="474.5" width="140" height="151" as="geometry" />
        </mxCell>
        <mxCell id="8bl1ii6WqUolUr_ryR1j-25" value="id_consulta" style="text;strokeColor=none;fillColor=none;align=left;verticalAlign=middle;spacingLeft=4;spacingRight=4;overflow=hidden;points=[[0,0.5],[1,0.5]];portConstraint=eastwest;rotatable=0;whiteSpace=wrap;html=1;labelBackgroundColor=none;fontColor=#5C5C5C;" vertex="1" parent="1">
          <mxGeometry x="604" y="504.5" width="140" height="20" as="geometry" />
        </mxCell>
        <mxCell id="8bl1ii6WqUolUr_ryR1j-26" value="id_paciente" style="text;strokeColor=none;fillColor=none;align=left;verticalAlign=middle;spacingLeft=4;spacingRight=4;overflow=hidden;points=[[0,0.5],[1,0.5]];portConstraint=eastwest;rotatable=0;whiteSpace=wrap;html=1;labelBackgroundColor=none;fontColor=#5C5C5C;" vertex="1" parent="1">
          <mxGeometry x="604" y="523.5" width="76" height="20" as="geometry" />
        </mxCell>
        <mxCell id="8bl1ii6WqUolUr_ryR1j-27" value="data" style="text;strokeColor=none;fillColor=none;align=left;verticalAlign=middle;spacingLeft=4;spacingRight=4;overflow=hidden;points=[[0,0.5],[1,0.5]];portConstraint=eastwest;rotatable=0;whiteSpace=wrap;html=1;labelBackgroundColor=none;fontColor=#5C5C5C;" vertex="1" parent="1">
          <mxGeometry x="604" y="592.5" width="80" height="20" as="geometry" />
        </mxCell>
        <mxCell id="8bl1ii6WqUolUr_ryR1j-28" value="hora" style="text;strokeColor=none;fillColor=none;align=left;verticalAlign=middle;spacingLeft=4;spacingRight=4;overflow=hidden;points=[[0,0.5],[1,0.5]];portConstraint=eastwest;rotatable=0;whiteSpace=wrap;html=1;labelBackgroundColor=none;fontColor=#5C5C5C;" vertex="1" parent="1">
          <mxGeometry x="604" y="605.5" width="80" height="20" as="geometry" />
        </mxCell>
        <mxCell id="8bl1ii6WqUolUr_ryR1j-29" value="id_medico" style="text;strokeColor=none;fillColor=none;align=left;verticalAlign=middle;spacingLeft=4;spacingRight=4;overflow=hidden;points=[[0,0.5],[1,0.5]];portConstraint=eastwest;rotatable=0;whiteSpace=wrap;html=1;labelBackgroundColor=none;fontColor=#5C5C5C;" vertex="1" parent="1">
          <mxGeometry x="604" y="541.5" width="90" height="20" as="geometry" />
        </mxCell>
        <mxCell id="8bl1ii6WqUolUr_ryR1j-30" value="" style="endArrow=classic;html=1;rounded=0;entryX=0.5;entryY=0;entryDx=0;entryDy=0;exitX=0.828;exitY=1.076;exitDx=0;exitDy=0;exitPerimeter=0;labelBackgroundColor=none;strokeColor=#006658;fontColor=default;" edge="1" parent="1" source="8bl1ii6WqUolUr_ryR1j-6" target="8bl1ii6WqUolUr_ryR1j-24">
          <mxGeometry width="50" height="50" relative="1" as="geometry">
            <mxPoint x="420" y="360" as="sourcePoint" />
            <mxPoint x="660" y="220" as="targetPoint" />
            <Array as="points">
              <mxPoint x="426" y="406" />
              <mxPoint x="426" y="440" />
              <mxPoint x="540" y="440" />
              <mxPoint x="674" y="440" />
            </Array>
          </mxGeometry>
        </mxCell>
        <mxCell id="8bl1ii6WqUolUr_ryR1j-31" value="" style="edgeStyle=segmentEdgeStyle;endArrow=classic;html=1;curved=0;rounded=0;endSize=8;startSize=8;entryX=0.5;entryY=0;entryDx=0;entryDy=0;exitX=0.5;exitY=1;exitDx=0;exitDy=0;labelBackgroundColor=none;strokeColor=#006658;fontColor=default;" edge="1" parent="1" source="8bl1ii6WqUolUr_ryR1j-7" target="8bl1ii6WqUolUr_ryR1j-24">
          <mxGeometry width="50" height="50" relative="1" as="geometry">
            <mxPoint x="980" y="430" as="sourcePoint" />
            <mxPoint x="710" y="360" as="targetPoint" />
            <Array as="points">
              <mxPoint x="930" y="440" />
              <mxPoint x="674" y="440" />
            </Array>
          </mxGeometry>
        </mxCell>
        <mxCell id="8bl1ii6WqUolUr_ryR1j-32" value="receita_medica" style="swimlane;fontStyle=0;childLayout=stackLayout;horizontal=1;startSize=30;horizontalStack=0;resizeParent=1;resizeParentMax=0;resizeLast=0;collapsible=1;marginBottom=0;whiteSpace=wrap;html=1;container=0;labelBackgroundColor=none;fillColor=#21C0A5;strokeColor=#006658;fontColor=#5C5C5C;" vertex="1" parent="1">
          <mxGeometry x="604" y="650" width="140" height="200" as="geometry" />
        </mxCell>
        <mxCell id="8bl1ii6WqUolUr_ryR1j-33" value="id_receita" style="text;strokeColor=none;fillColor=none;align=left;verticalAlign=middle;spacingLeft=4;spacingRight=4;overflow=hidden;points=[[0,0.5],[1,0.5]];portConstraint=eastwest;rotatable=0;whiteSpace=wrap;html=1;labelBackgroundColor=none;fontColor=#5C5C5C;" vertex="1" parent="1">
          <mxGeometry x="604" y="680" width="140" height="20" as="geometry" />
        </mxCell>
        <mxCell id="8bl1ii6WqUolUr_ryR1j-34" value="id_paciente" style="text;strokeColor=none;fillColor=none;align=left;verticalAlign=middle;spacingLeft=4;spacingRight=4;overflow=hidden;points=[[0,0.5],[1,0.5]];portConstraint=eastwest;rotatable=0;whiteSpace=wrap;html=1;labelBackgroundColor=none;fontColor=#5C5C5C;" vertex="1" parent="1">
          <mxGeometry x="604" y="699" width="76" height="20" as="geometry" />
        </mxCell>
        <mxCell id="8bl1ii6WqUolUr_ryR1j-35" value="data_receita" style="text;strokeColor=none;fillColor=none;align=left;verticalAlign=middle;spacingLeft=4;spacingRight=4;overflow=hidden;points=[[0,0.5],[1,0.5]];portConstraint=eastwest;rotatable=0;whiteSpace=wrap;html=1;labelBackgroundColor=none;fontColor=#5C5C5C;" vertex="1" parent="1">
          <mxGeometry x="604" y="738" width="80" height="20" as="geometry" />
        </mxCell>
        <mxCell id="8bl1ii6WqUolUr_ryR1j-36" value="medicamento" style="text;strokeColor=none;fillColor=none;align=left;verticalAlign=middle;spacingLeft=4;spacingRight=4;overflow=hidden;points=[[0,0.5],[1,0.5]];portConstraint=eastwest;rotatable=0;whiteSpace=wrap;html=1;labelBackgroundColor=none;fontColor=#5C5C5C;" vertex="1" parent="1">
          <mxGeometry x="604" y="758" width="86" height="20" as="geometry" />
        </mxCell>
        <mxCell id="8bl1ii6WqUolUr_ryR1j-37" value="id_medico" style="text;strokeColor=none;fillColor=none;align=left;verticalAlign=middle;spacingLeft=4;spacingRight=4;overflow=hidden;points=[[0,0.5],[1,0.5]];portConstraint=eastwest;rotatable=0;whiteSpace=wrap;html=1;labelBackgroundColor=none;fontColor=#5C5C5C;" vertex="1" parent="1">
          <mxGeometry x="604" y="718" width="90" height="20" as="geometry" />
        </mxCell>
        <mxCell id="8bl1ii6WqUolUr_ryR1j-38" value="dosagem&lt;span style=&quot;color: rgba(0, 0, 0, 0); font-family: monospace; font-size: 0px; text-wrap-mode: nowrap;&quot;&gt;%3CmxGraphModel%3E%3Croot%3E%3CmxCell%20id%3D%220%22%2F%3E%3CmxCell%20id%3D%221%22%20parent%3D%220%22%2F%3E%3CmxCell%20id%3D%222%22%20value%3D%22medicamento%22%20style%3D%22text%3BstrokeColor%3Dnone%3BfillColor%3Dnone%3Balign%3Dleft%3BverticalAlign%3Dmiddle%3BspacingLeft%3D4%3BspacingRight%3D4%3Boverflow%3Dhidden%3Bpoints%3D%5B%5B0%2C0.5%5D%2C%5B1%2C0.5%5D%5D%3BportConstraint%3Deastwest%3Brotatable%3D0%3BwhiteSpace%3Dwrap%3Bhtml%3D1%3B%22%20vertex%3D%221%22%20parent%3D%221%22%3E%3CmxGeometry%20x%3D%22344%22%20y%3D%22789%22%20width%3D%2286%22%20height%3D%2220%22%20as%3D%22geometry%22%2F%3E%3C%2FmxCell%3E%3C%2Froot%3E%3C%2FmxGraphModel%3E&lt;/span&gt;" style="text;strokeColor=none;fillColor=none;align=left;verticalAlign=middle;spacingLeft=4;spacingRight=4;overflow=hidden;points=[[0,0.5],[1,0.5]];portConstraint=eastwest;rotatable=0;whiteSpace=wrap;html=1;labelBackgroundColor=none;fontColor=#5C5C5C;" vertex="1" parent="1">
          <mxGeometry x="604" y="778" width="86" height="20" as="geometry" />
        </mxCell>
        <mxCell id="8bl1ii6WqUolUr_ryR1j-39" value="frequencia" style="text;strokeColor=none;fillColor=none;align=left;verticalAlign=middle;spacingLeft=4;spacingRight=4;overflow=hidden;points=[[0,0.5],[1,0.5]];portConstraint=eastwest;rotatable=0;whiteSpace=wrap;html=1;labelBackgroundColor=none;fontColor=#5C5C5C;" vertex="1" parent="1">
          <mxGeometry x="604" y="797" width="86" height="20" as="geometry" />
        </mxCell>
        <mxCell id="8bl1ii6WqUolUr_ryR1j-40" value="duracao" style="text;strokeColor=none;fillColor=none;align=left;verticalAlign=middle;spacingLeft=4;spacingRight=4;overflow=hidden;points=[[0,0.5],[1,0.5]];portConstraint=eastwest;rotatable=0;whiteSpace=wrap;html=1;labelBackgroundColor=none;fontColor=#5C5C5C;" vertex="1" parent="1">
          <mxGeometry x="604" y="815" width="86" height="20" as="geometry" />
        </mxCell>
        <mxCell id="8bl1ii6WqUolUr_ryR1j-41" value="instrucoes" style="text;strokeColor=none;fillColor=none;align=left;verticalAlign=middle;spacingLeft=4;spacingRight=4;overflow=hidden;points=[[0,0.5],[1,0.5]];portConstraint=eastwest;rotatable=0;whiteSpace=wrap;html=1;labelBackgroundColor=none;fontColor=#5C5C5C;" vertex="1" parent="1">
          <mxGeometry x="604" y="831" width="86" height="20" as="geometry" />
        </mxCell>
        <mxCell id="8bl1ii6WqUolUr_ryR1j-42" value="" style="edgeStyle=elbowEdgeStyle;elbow=vertical;endArrow=classic;html=1;curved=0;rounded=0;endSize=8;startSize=8;entryX=0.5;entryY=0;entryDx=0;entryDy=0;labelBackgroundColor=none;strokeColor=#006658;fontColor=default;" edge="1" parent="1" target="8bl1ii6WqUolUr_ryR1j-24">
          <mxGeometry width="50" height="50" relative="1" as="geometry">
            <mxPoint x="674" y="400" as="sourcePoint" />
            <mxPoint x="740" y="300" as="targetPoint" />
          </mxGeometry>
        </mxCell>
        <mxCell id="8bl1ii6WqUolUr_ryR1j-43" value="id_enfermeiro" style="text;strokeColor=none;fillColor=none;align=left;verticalAlign=middle;spacingLeft=4;spacingRight=4;overflow=hidden;points=[[0,0.5],[1,0.5]];portConstraint=eastwest;rotatable=0;whiteSpace=wrap;html=1;labelBackgroundColor=none;fontColor=#5C5C5C;" vertex="1" parent="1">
          <mxGeometry x="604" y="558.5" width="90" height="20" as="geometry" />
        </mxCell>
        <mxCell id="8bl1ii6WqUolUr_ryR1j-44" value="1:N" style="text;html=1;align=center;verticalAlign=middle;whiteSpace=wrap;rounded=0;labelBackgroundColor=none;fontColor=#5C5C5C;" vertex="1" parent="1">
          <mxGeometry x="890" y="419" width="60" height="30" as="geometry" />
        </mxCell>
        <mxCell id="8bl1ii6WqUolUr_ryR1j-45" value="1:N" style="text;html=1;align=center;verticalAlign=middle;whiteSpace=wrap;rounded=0;labelBackgroundColor=none;fontColor=#5C5C5C;" vertex="1" parent="1">
          <mxGeometry x="634" y="419" width="60" height="30" as="geometry" />
        </mxCell>
        <mxCell id="8bl1ii6WqUolUr_ryR1j-46" value="1:N" style="text;html=1;align=center;verticalAlign=middle;whiteSpace=wrap;rounded=0;labelBackgroundColor=none;fontColor=#5C5C5C;" vertex="1" parent="1">
          <mxGeometry x="406" y="419" width="60" height="30" as="geometry" />
        </mxCell>
        <mxCell id="8bl1ii6WqUolUr_ryR1j-47" value="1:1" style="text;html=1;align=center;verticalAlign=middle;whiteSpace=wrap;rounded=0;labelBackgroundColor=none;fontColor=#5C5C5C;" vertex="1" parent="1">
          <mxGeometry x="654" y="620" width="60" height="30" as="geometry" />
        </mxCell>
        <mxCell id="8bl1ii6WqUolUr_ryR1j-49" value="fornecedor" style="swimlane;fontStyle=0;childLayout=stackLayout;horizontal=1;startSize=30;horizontalStack=0;resizeParent=1;resizeParentMax=0;resizeLast=0;collapsible=1;marginBottom=0;whiteSpace=wrap;html=1;container=0;labelBackgroundColor=none;fillColor=#21C0A5;strokeColor=#006658;fontColor=#5C5C5C;" vertex="1" parent="1">
          <mxGeometry x="1200" y="691" width="140" height="130" as="geometry" />
        </mxCell>
        <mxCell id="8bl1ii6WqUolUr_ryR1j-111" value="" style="edgeStyle=segmentEdgeStyle;endArrow=classic;html=1;curved=0;rounded=0;endSize=8;startSize=8;strokeColor=#006658;fontColor=#5C5C5C;fillColor=#21C0A5;" edge="1" parent="8bl1ii6WqUolUr_ryR1j-49">
          <mxGeometry width="50" height="50" relative="1" as="geometry">
            <mxPoint x="73" y="130" as="sourcePoint" />
            <mxPoint x="-41" y="243.99" as="targetPoint" />
            <Array as="points">
              <mxPoint x="69" y="130" />
              <mxPoint x="69" y="244" />
            </Array>
          </mxGeometry>
        </mxCell>
        <mxCell id="8bl1ii6WqUolUr_ryR1j-50" value="id_fornecedor" style="text;strokeColor=none;fillColor=none;align=left;verticalAlign=middle;spacingLeft=4;spacingRight=4;overflow=hidden;points=[[0,0.5],[1,0.5]];portConstraint=eastwest;rotatable=0;whiteSpace=wrap;html=1;labelBackgroundColor=none;fontColor=#5C5C5C;" vertex="1" parent="1">
          <mxGeometry x="1200" y="721" width="140" height="20" as="geometry" />
        </mxCell>
        <mxCell id="8bl1ii6WqUolUr_ryR1j-51" value="nome" style="text;strokeColor=none;fillColor=none;align=left;verticalAlign=middle;spacingLeft=4;spacingRight=4;overflow=hidden;points=[[0,0.5],[1,0.5]];portConstraint=eastwest;rotatable=0;whiteSpace=wrap;html=1;labelBackgroundColor=none;fontColor=#5C5C5C;" vertex="1" parent="1">
          <mxGeometry x="1200" y="740" width="60" height="20" as="geometry" />
        </mxCell>
        <mxCell id="8bl1ii6WqUolUr_ryR1j-52" value="cnpj" style="text;strokeColor=none;fillColor=none;align=left;verticalAlign=middle;spacingLeft=4;spacingRight=4;overflow=hidden;points=[[0,0.5],[1,0.5]];portConstraint=eastwest;rotatable=0;whiteSpace=wrap;html=1;labelBackgroundColor=none;fontColor=#5C5C5C;" vertex="1" parent="1">
          <mxGeometry x="1200" y="760" width="80" height="20" as="geometry" />
        </mxCell>
        <mxCell id="8bl1ii6WqUolUr_ryR1j-53" value="endereco&lt;span style=&quot;color: rgba(0, 0, 0, 0); font-family: monospace; font-size: 0px; text-wrap-mode: nowrap;&quot;&gt;%3CmxGraphModel%3E%3Croot%3E%3CmxCell%20id%3D%220%22%2F%3E%3CmxCell%20id%3D%221%22%20parent%3D%220%22%2F%3E%3CmxCell%20id%3D%222%22%20value%3D%22nascimento%22%20style%3D%22text%3BstrokeColor%3Dnone%3BfillColor%3Dnone%3Balign%3Dleft%3BverticalAlign%3Dmiddle%3BspacingLeft%3D4%3BspacingRight%3D4%3Boverflow%3Dhidden%3Bpoints%3D%5B%5B0%2C0.5%5D%2C%5B1%2C0.5%5D%5D%3BportConstraint%3Deastwest%3Brotatable%3D0%3BwhiteSpace%3Dwrap%3Bhtml%3D1%3B%22%20vertex%3D%221%22%20parent%3D%221%22%3E%3CmxGeometry%20x%3D%22230%22%20y%3D%22340%22%20width%3D%2280%22%20height%3D%2220%22%20as%3D%22geometry%22%2F%3E%3C%2FmxCell%3E%3C%2Froot%3E%3C%2FmxGraphModel%3E&lt;/span&gt;" style="text;strokeColor=none;fillColor=none;align=left;verticalAlign=middle;spacingLeft=4;spacingRight=4;overflow=hidden;points=[[0,0.5],[1,0.5]];portConstraint=eastwest;rotatable=0;whiteSpace=wrap;html=1;labelBackgroundColor=none;fontColor=#5C5C5C;" vertex="1" parent="1">
          <mxGeometry x="1200" y="780" width="80" height="20" as="geometry" />
        </mxCell>
        <mxCell id="8bl1ii6WqUolUr_ryR1j-54" value="telefone" style="text;strokeColor=none;fillColor=none;align=left;verticalAlign=middle;spacingLeft=4;spacingRight=4;overflow=hidden;points=[[0,0.5],[1,0.5]];portConstraint=eastwest;rotatable=0;whiteSpace=wrap;html=1;labelBackgroundColor=none;fontColor=#5C5C5C;" vertex="1" parent="1">
          <mxGeometry x="1200" y="800" width="80" height="20" as="geometry" />
        </mxCell>
        <mxCell id="8bl1ii6WqUolUr_ryR1j-56" value="nota_fiscal" style="swimlane;fontStyle=0;childLayout=stackLayout;horizontal=1;startSize=30;horizontalStack=0;resizeParent=1;resizeParentMax=0;resizeLast=0;collapsible=1;marginBottom=0;whiteSpace=wrap;html=1;container=0;labelBackgroundColor=none;fillColor=#21C0A5;strokeColor=#006658;fontColor=#5C5C5C;" vertex="1" parent="1">
          <mxGeometry x="1019" y="849" width="140" height="140" as="geometry" />
        </mxCell>
        <mxCell id="8bl1ii6WqUolUr_ryR1j-57" value="id_notafiscal" style="text;strokeColor=none;fillColor=none;align=left;verticalAlign=middle;spacingLeft=4;spacingRight=4;overflow=hidden;points=[[0,0.5],[1,0.5]];portConstraint=eastwest;rotatable=0;whiteSpace=wrap;html=1;labelBackgroundColor=none;fontColor=#5C5C5C;" vertex="1" parent="1">
          <mxGeometry x="1019" y="879" width="140" height="20" as="geometry" />
        </mxCell>
        <mxCell id="8bl1ii6WqUolUr_ryR1j-58" value="id_pedido" style="text;strokeColor=none;fillColor=none;align=left;verticalAlign=middle;spacingLeft=4;spacingRight=4;overflow=hidden;points=[[0,0.5],[1,0.5]];portConstraint=eastwest;rotatable=0;whiteSpace=wrap;html=1;labelBackgroundColor=none;fontColor=#5C5C5C;" vertex="1" parent="1">
          <mxGeometry x="1019" y="898" width="76" height="20" as="geometry" />
        </mxCell>
        <mxCell id="8bl1ii6WqUolUr_ryR1j-59" value="valor" style="text;strokeColor=none;fillColor=none;align=left;verticalAlign=middle;spacingLeft=4;spacingRight=4;overflow=hidden;points=[[0,0.5],[1,0.5]];portConstraint=eastwest;rotatable=0;whiteSpace=wrap;html=1;labelBackgroundColor=none;fontColor=#5C5C5C;" vertex="1" parent="1">
          <mxGeometry x="1019" y="951" width="80" height="20" as="geometry" />
        </mxCell>
        <mxCell id="8bl1ii6WqUolUr_ryR1j-60" value="descriÃ§Ã£o" style="text;strokeColor=none;fillColor=none;align=left;verticalAlign=middle;spacingLeft=4;spacingRight=4;overflow=hidden;points=[[0,0.5],[1,0.5]];portConstraint=eastwest;rotatable=0;whiteSpace=wrap;html=1;labelBackgroundColor=none;fontColor=#5C5C5C;" vertex="1" parent="1">
          <mxGeometry x="1019" y="966" width="80" height="20" as="geometry" />
        </mxCell>
        <mxCell id="8bl1ii6WqUolUr_ryR1j-61" value="id_fornecedor" style="text;strokeColor=none;fillColor=none;align=left;verticalAlign=middle;spacingLeft=4;spacingRight=4;overflow=hidden;points=[[0,0.5],[1,0.5]];portConstraint=eastwest;rotatable=0;whiteSpace=wrap;html=1;labelBackgroundColor=none;fontColor=#5C5C5C;" vertex="1" parent="1">
          <mxGeometry x="1019" y="916" width="90" height="20" as="geometry" />
        </mxCell>
        <mxCell id="8bl1ii6WqUolUr_ryR1j-62" value="data_emissao" style="text;strokeColor=none;fillColor=none;align=left;verticalAlign=middle;spacingLeft=4;spacingRight=4;overflow=hidden;points=[[0,0.5],[1,0.5]];portConstraint=eastwest;rotatable=0;whiteSpace=wrap;html=1;labelBackgroundColor=none;fontColor=#5C5C5C;" vertex="1" parent="1">
          <mxGeometry x="1019" y="933" width="90" height="20" as="geometry" />
        </mxCell>
        <mxCell id="8bl1ii6WqUolUr_ryR1j-63" value="pedidos_compra" style="swimlane;fontStyle=0;childLayout=stackLayout;horizontal=1;startSize=30;horizontalStack=0;resizeParent=1;resizeParentMax=0;resizeLast=0;collapsible=1;marginBottom=0;whiteSpace=wrap;html=1;container=0;labelBackgroundColor=none;fillColor=#21C0A5;strokeColor=#006658;fontColor=#5C5C5C;" vertex="1" parent="1">
          <mxGeometry x="1019" y="519" width="140" height="120" as="geometry" />
        </mxCell>
        <mxCell id="8bl1ii6WqUolUr_ryR1j-64" value="id_fornecedor" style="text;strokeColor=none;fillColor=none;align=left;verticalAlign=middle;spacingLeft=4;spacingRight=4;overflow=hidden;points=[[0,0.5],[1,0.5]];portConstraint=eastwest;rotatable=0;whiteSpace=wrap;html=1;labelBackgroundColor=none;fontColor=#5C5C5C;" vertex="1" parent="1">
          <mxGeometry x="1019" y="549" width="140" height="20" as="geometry" />
        </mxCell>
        <mxCell id="8bl1ii6WqUolUr_ryR1j-65" value="id_pedido" style="text;strokeColor=none;fillColor=none;align=left;verticalAlign=middle;spacingLeft=4;spacingRight=4;overflow=hidden;points=[[0,0.5],[1,0.5]];portConstraint=eastwest;rotatable=0;whiteSpace=wrap;html=1;labelBackgroundColor=none;fontColor=#5C5C5C;" vertex="1" parent="1">
          <mxGeometry x="1019" y="568" width="76" height="20" as="geometry" />
        </mxCell>
        <mxCell id="8bl1ii6WqUolUr_ryR1j-66" value="status_pedido" style="text;strokeColor=none;fillColor=none;align=left;verticalAlign=middle;spacingLeft=4;spacingRight=4;overflow=hidden;points=[[0,0.5],[1,0.5]];portConstraint=eastwest;rotatable=0;whiteSpace=wrap;html=1;labelBackgroundColor=none;fontColor=#5C5C5C;" vertex="1" parent="1">
          <mxGeometry x="1019" y="619" width="90" height="20" as="geometry" />
        </mxCell>
        <mxCell id="8bl1ii6WqUolUr_ryR1j-68" value="data_pedido" style="text;strokeColor=none;fillColor=none;align=left;verticalAlign=middle;spacingLeft=4;spacingRight=4;overflow=hidden;points=[[0,0.5],[1,0.5]];portConstraint=eastwest;rotatable=0;whiteSpace=wrap;html=1;labelBackgroundColor=none;fontColor=#5C5C5C;" vertex="1" parent="1">
          <mxGeometry x="1019" y="586" width="90" height="20" as="geometry" />
        </mxCell>
        <mxCell id="8bl1ii6WqUolUr_ryR1j-69" value="data_entrega" style="text;strokeColor=none;fillColor=none;align=left;verticalAlign=middle;spacingLeft=4;spacingRight=4;overflow=hidden;points=[[0,0.5],[1,0.5]];portConstraint=eastwest;rotatable=0;whiteSpace=wrap;html=1;labelBackgroundColor=none;fontColor=#5C5C5C;" vertex="1" parent="1">
          <mxGeometry x="1019" y="603" width="90" height="20" as="geometry" />
        </mxCell>
        <mxCell id="8bl1ii6WqUolUr_ryR1j-70" value="itens_pedido" style="swimlane;fontStyle=0;childLayout=stackLayout;horizontal=1;startSize=30;horizontalStack=0;resizeParent=1;resizeParentMax=0;resizeLast=0;collapsible=1;marginBottom=0;whiteSpace=wrap;html=1;container=0;labelBackgroundColor=none;fillColor=#21C0A5;strokeColor=#006658;fontColor=#5C5C5C;" vertex="1" parent="1">
          <mxGeometry x="1019" y="668" width="140" height="140" as="geometry" />
        </mxCell>
        <mxCell id="8bl1ii6WqUolUr_ryR1j-71" value="id_item" style="text;strokeColor=none;fillColor=none;align=left;verticalAlign=middle;spacingLeft=4;spacingRight=4;overflow=hidden;points=[[0,0.5],[1,0.5]];portConstraint=eastwest;rotatable=0;whiteSpace=wrap;html=1;labelBackgroundColor=none;fontColor=#5C5C5C;" vertex="1" parent="1">
          <mxGeometry x="1019" y="698" width="140" height="20" as="geometry" />
        </mxCell>
        <mxCell id="8bl1ii6WqUolUr_ryR1j-72" value="id_pedido" style="text;strokeColor=none;fillColor=none;align=left;verticalAlign=middle;spacingLeft=4;spacingRight=4;overflow=hidden;points=[[0,0.5],[1,0.5]];portConstraint=eastwest;rotatable=0;whiteSpace=wrap;html=1;labelBackgroundColor=none;fontColor=#5C5C5C;" vertex="1" parent="1">
          <mxGeometry x="1019" y="717" width="76" height="20" as="geometry" />
        </mxCell>
        <mxCell id="8bl1ii6WqUolUr_ryR1j-73" value="valor" style="text;strokeColor=none;fillColor=none;align=left;verticalAlign=middle;spacingLeft=4;spacingRight=4;overflow=hidden;points=[[0,0.5],[1,0.5]];portConstraint=eastwest;rotatable=0;whiteSpace=wrap;html=1;labelBackgroundColor=none;fontColor=#5C5C5C;" vertex="1" parent="1">
          <mxGeometry x="1019" y="769" width="80" height="20" as="geometry" />
        </mxCell>
        <mxCell id="8bl1ii6WqUolUr_ryR1j-74" value="descriÃ§Ã£o" style="text;strokeColor=none;fillColor=none;align=left;verticalAlign=middle;spacingLeft=4;spacingRight=4;overflow=hidden;points=[[0,0.5],[1,0.5]];portConstraint=eastwest;rotatable=0;whiteSpace=wrap;html=1;labelBackgroundColor=none;fontColor=#5C5C5C;" vertex="1" parent="1">
          <mxGeometry x="1019" y="785" width="80" height="20" as="geometry" />
        </mxCell>
        <mxCell id="8bl1ii6WqUolUr_ryR1j-75" value="id_produto" style="text;strokeColor=none;fillColor=none;align=left;verticalAlign=middle;spacingLeft=4;spacingRight=4;overflow=hidden;points=[[0,0.5],[1,0.5]];portConstraint=eastwest;rotatable=0;whiteSpace=wrap;html=1;labelBackgroundColor=none;fontColor=#5C5C5C;" vertex="1" parent="1">
          <mxGeometry x="1019" y="735" width="90" height="20" as="geometry" />
        </mxCell>
        <mxCell id="8bl1ii6WqUolUr_ryR1j-76" value="quantidade" style="text;strokeColor=none;fillColor=none;align=left;verticalAlign=middle;spacingLeft=4;spacingRight=4;overflow=hidden;points=[[0,0.5],[1,0.5]];portConstraint=eastwest;rotatable=0;whiteSpace=wrap;html=1;labelBackgroundColor=none;fontColor=#5C5C5C;" vertex="1" parent="1">
          <mxGeometry x="1019" y="753" width="90" height="20" as="geometry" />
        </mxCell>
        <mxCell id="8bl1ii6WqUolUr_ryR1j-78" value="medicamentos" style="swimlane;fontStyle=0;childLayout=stackLayout;horizontal=1;startSize=30;horizontalStack=0;resizeParent=1;resizeParentMax=0;resizeLast=0;collapsible=1;marginBottom=0;whiteSpace=wrap;html=1;container=0;labelBackgroundColor=none;fillColor=#21C0A5;strokeColor=#006658;fontColor=#5C5C5C;" vertex="1" parent="1">
          <mxGeometry x="832" y="695" width="140" height="106" as="geometry" />
        </mxCell>
        <mxCell id="8bl1ii6WqUolUr_ryR1j-79" value="id_medicamentos" style="text;strokeColor=none;fillColor=none;align=left;verticalAlign=middle;spacingLeft=4;spacingRight=4;overflow=hidden;points=[[0,0.5],[1,0.5]];portConstraint=eastwest;rotatable=0;whiteSpace=wrap;html=1;labelBackgroundColor=none;fontColor=#5C5C5C;" vertex="1" parent="1">
          <mxGeometry x="832" y="725" width="140" height="20" as="geometry" />
        </mxCell>
        <mxCell id="8bl1ii6WqUolUr_ryR1j-80" value="nome_medicamento" style="text;strokeColor=none;fillColor=none;align=left;verticalAlign=middle;spacingLeft=4;spacingRight=4;overflow=hidden;points=[[0,0.5],[1,0.5]];portConstraint=eastwest;rotatable=0;whiteSpace=wrap;html=1;labelBackgroundColor=none;fontColor=#5C5C5C;" vertex="1" parent="1">
          <mxGeometry x="832" y="744" width="130" height="20" as="geometry" />
        </mxCell>
        <mxCell id="8bl1ii6WqUolUr_ryR1j-82" value="dosagem" style="text;strokeColor=none;fillColor=none;align=left;verticalAlign=middle;spacingLeft=4;spacingRight=4;overflow=hidden;points=[[0,0.5],[1,0.5]];portConstraint=eastwest;rotatable=0;whiteSpace=wrap;html=1;labelBackgroundColor=none;fontColor=#5C5C5C;" vertex="1" parent="1">
          <mxGeometry x="832" y="762" width="90" height="20" as="geometry" />
        </mxCell>
        <mxCell id="8bl1ii6WqUolUr_ryR1j-83" value="efeitos_colaterais" style="text;strokeColor=none;fillColor=none;align=left;verticalAlign=middle;spacingLeft=4;spacingRight=4;overflow=hidden;points=[[0,0.5],[1,0.5]];portConstraint=eastwest;rotatable=0;whiteSpace=wrap;html=1;labelBackgroundColor=none;fontColor=#5C5C5C;" vertex="1" parent="1">
          <mxGeometry x="832" y="779" width="110" height="20" as="geometry" />
        </mxCell>
        <mxCell id="8bl1ii6WqUolUr_ryR1j-85" value="" style="endArrow=classic;html=1;rounded=0;exitX=-0.002;exitY=0.394;exitDx=0;exitDy=0;exitPerimeter=0;labelBackgroundColor=none;strokeColor=#006658;fontColor=default;" edge="1" parent="1" source="8bl1ii6WqUolUr_ryR1j-80">
          <mxGeometry width="50" height="50" relative="1" as="geometry">
            <mxPoint x="856" y="752" as="sourcePoint" />
            <mxPoint x="744" y="752" as="targetPoint" />
          </mxGeometry>
        </mxCell>
        <mxCell id="8bl1ii6WqUolUr_ryR1j-87" value="N:1" style="text;html=1;align=center;verticalAlign=middle;whiteSpace=wrap;rounded=0;labelBackgroundColor=none;fontColor=#5C5C5C;" vertex="1" parent="1">
          <mxGeometry x="791" y="728" width="60" height="30" as="geometry" />
        </mxCell>
        <mxCell id="8bl1ii6WqUolUr_ryR1j-91" value="" style="endArrow=classic;html=1;rounded=0;labelBackgroundColor=none;strokeColor=#006658;fontColor=default;" edge="1" parent="1">
          <mxGeometry width="50" height="50" relative="1" as="geometry">
            <mxPoint x="1019" y="752" as="sourcePoint" />
            <mxPoint x="972" y="752" as="targetPoint" />
          </mxGeometry>
        </mxCell>
        <mxCell id="8bl1ii6WqUolUr_ryR1j-92" value="" style="endArrow=classic;html=1;rounded=0;labelBackgroundColor=none;strokeColor=#006658;fontColor=default;entryX=1;entryY=0.5;entryDx=0;entryDy=0;exitX=1;exitY=0.75;exitDx=0;exitDy=0;" edge="1" parent="1" source="8bl1ii6WqUolUr_ryR1j-63" target="8bl1ii6WqUolUr_ryR1j-56">
          <mxGeometry width="50" height="50" relative="1" as="geometry">
            <mxPoint x="832" y="581" as="sourcePoint" />
            <mxPoint x="785" y="581" as="targetPoint" />
            <Array as="points">
              <mxPoint x="1183" y="609" />
              <mxPoint x="1183" y="649" />
              <mxPoint x="1183" y="689" />
              <mxPoint x="1183" y="759" />
              <mxPoint x="1183" y="839" />
              <mxPoint x="1183" y="879" />
              <mxPoint x="1183" y="909" />
              <mxPoint x="1183" y="919" />
            </Array>
          </mxGeometry>
        </mxCell>
        <mxCell id="8bl1ii6WqUolUr_ryR1j-93" value="" style="endArrow=classic;html=1;rounded=0;labelBackgroundColor=none;strokeColor=#006658;fontColor=default;exitX=0.822;exitY=1;exitDx=0;exitDy=0;exitPerimeter=0;" edge="1" parent="1" source="8bl1ii6WqUolUr_ryR1j-66">
          <mxGeometry width="50" height="50" relative="1" as="geometry">
            <mxPoint x="1112.5" y="652.6" as="sourcePoint" />
            <mxPoint x="1093" y="669" as="targetPoint" />
          </mxGeometry>
        </mxCell>
        <mxCell id="8bl1ii6WqUolUr_ryR1j-99" value="1:N" style="text;html=1;align=center;verticalAlign=middle;whiteSpace=wrap;rounded=0;labelBackgroundColor=none;fontColor=#5C5C5C;" vertex="1" parent="1">
          <mxGeometry x="1228" y="818" width="60" height="30" as="geometry" />
        </mxCell>
        <mxCell id="8bl1ii6WqUolUr_ryR1j-100" value="1:N" style="text;html=1;align=center;verticalAlign=middle;whiteSpace=wrap;rounded=0;labelBackgroundColor=none;fontColor=#5C5C5C;" vertex="1" parent="1">
          <mxGeometry x="1071" y="638" width="22" height="30" as="geometry" />
        </mxCell>
        <mxCell id="8bl1ii6WqUolUr_ryR1j-101" value="1:1" style="text;html=1;align=center;verticalAlign=middle;whiteSpace=wrap;rounded=0;labelBackgroundColor=none;fontColor=#5C5C5C;" vertex="1" parent="1">
          <mxGeometry x="1163" y="587" width="18" height="30" as="geometry" />
        </mxCell>
        <mxCell id="8bl1ii6WqUolUr_ryR1j-102" value="1:N" style="text;html=1;align=center;verticalAlign=middle;whiteSpace=wrap;rounded=0;labelBackgroundColor=none;fontColor=#5C5C5C;" vertex="1" parent="1">
          <mxGeometry x="978" y="730" width="60" height="30" as="geometry" />
        </mxCell>
        <mxCell id="8bl1ii6WqUolUr_ryR1j-114" value="1:N" style="text;html=1;align=center;verticalAlign=middle;whiteSpace=wrap;rounded=0;labelBackgroundColor=none;fontColor=#5C5C5C;" vertex="1" parent="1">
          <mxGeometry x="1230" y="668" width="60" height="30" as="geometry" />
        </mxCell>
        <mxCell id="8bl1ii6WqUolUr_ryR1j-117" value="sala" style="swimlane;fontStyle=0;childLayout=stackLayout;horizontal=1;startSize=30;horizontalStack=0;resizeParent=1;resizeParentMax=0;resizeLast=0;collapsible=1;marginBottom=0;whiteSpace=wrap;html=1;container=0;labelBackgroundColor=none;fillColor=#21C0A5;strokeColor=#006658;fontColor=#5C5C5C;" vertex="1" parent="1">
          <mxGeometry x="426" y="494.5" width="140" height="111" as="geometry" />
        </mxCell>
        <mxCell id="8bl1ii6WqUolUr_ryR1j-118" value="id_sala" style="text;strokeColor=none;fillColor=none;align=left;verticalAlign=middle;spacingLeft=4;spacingRight=4;overflow=hidden;points=[[0,0.5],[1,0.5]];portConstraint=eastwest;rotatable=0;whiteSpace=wrap;html=1;labelBackgroundColor=none;fontColor=#5C5C5C;" vertex="1" parent="1">
          <mxGeometry x="426" y="524.5" width="140" height="20" as="geometry" />
        </mxCell>
        <mxCell id="8bl1ii6WqUolUr_ryR1j-119" value="numero_sala" style="text;strokeColor=none;fillColor=none;align=left;verticalAlign=middle;spacingLeft=4;spacingRight=4;overflow=hidden;points=[[0,0.5],[1,0.5]];portConstraint=eastwest;rotatable=0;whiteSpace=wrap;html=1;labelBackgroundColor=none;fontColor=#5C5C5C;" vertex="1" parent="1">
          <mxGeometry x="426" y="543.5" width="90" height="20" as="geometry" />
        </mxCell>
        <mxCell id="8bl1ii6WqUolUr_ryR1j-120" value="andar" style="text;strokeColor=none;fillColor=none;align=left;verticalAlign=middle;spacingLeft=4;spacingRight=4;overflow=hidden;points=[[0,0.5],[1,0.5]];portConstraint=eastwest;rotatable=0;whiteSpace=wrap;html=1;labelBackgroundColor=none;fontColor=#5C5C5C;" vertex="1" parent="1">
          <mxGeometry x="426" y="563.5" width="80" height="20" as="geometry" />
        </mxCell>
        <mxCell id="8bl1ii6WqUolUr_ryR1j-121" value="tipo_sala" style="text;strokeColor=none;fillColor=none;align=left;verticalAlign=middle;spacingLeft=4;spacingRight=4;overflow=hidden;points=[[0,0.5],[1,0.5]];portConstraint=eastwest;rotatable=0;whiteSpace=wrap;html=1;labelBackgroundColor=none;fontColor=#5C5C5C;" vertex="1" parent="1">
          <mxGeometry x="426" y="583.5" width="80" height="20" as="geometry" />
        </mxCell>
        <mxCell id="8bl1ii6WqUolUr_ryR1j-123" value="" style="endArrow=classic;html=1;rounded=0;strokeColor=#006658;fontColor=#5C5C5C;fillColor=#21C0A5;entryX=-0.001;entryY=0.723;entryDx=0;entryDy=0;entryPerimeter=0;" edge="1" parent="1" target="8bl1ii6WqUolUr_ryR1j-29">
          <mxGeometry width="50" height="50" relative="1" as="geometry">
            <mxPoint x="566" y="556" as="sourcePoint" />
            <mxPoint x="596" y="476" as="targetPoint" />
          </mxGeometry>
        </mxCell>
        <mxCell id="8bl1ii6WqUolUr_ryR1j-124" value="1:1" style="text;html=1;align=center;verticalAlign=middle;whiteSpace=wrap;rounded=0;fontColor=#5C5C5C;" vertex="1" parent="1">
          <mxGeometry x="561" y="535" width="30" height="30" as="geometry" />
        </mxCell>
        <mxCell id="8bl1ii6WqUolUr_ryR1j-126" value="id_sala" style="text;strokeColor=none;fillColor=none;align=left;verticalAlign=middle;spacingLeft=4;spacingRight=4;overflow=hidden;points=[[0,0.5],[1,0.5]];portConstraint=eastwest;rotatable=0;whiteSpace=wrap;html=1;labelBackgroundColor=none;fontColor=#5C5C5C;" vertex="1" parent="1">
          <mxGeometry x="604" y="576.5" width="90" height="20" as="geometry" />
        </mxCell>
      </root>
    </mxGraphModel>
  </diagram>
</mxfile>
